<?xml version="1.0" encoding="utf-8"?>
<!-- Generator: Adobe Illustrator 24.0.0, SVG Export Plug-In . SVG Version: 6.00 Build 0)  -->
<svg version="1.1" id="Layer_1" xmlns="http://www.w3.org/2000/svg" xmlns:xlink="http://www.w3.org/1999/xlink" x="0px" y="0px"
	 viewBox="0 0 27 20.6" style="enable-background:new 0 0 27 20.6;" xml:space="preserve">
<style type="text/css">
	.st0{fill:#FFFFFF;}
</style>
<path class="st0" d="M27,20.6H0V0h27V20.6z M2.8,17.8h21.4v-15H2.8V17.8z M15.2,15.6V5.2h7.3v2.3h-4.6v2.1h4.2v2.3h-4.2v3.7H15.2z
	 M4.3,10.5L4.3,10.5c0-3,2.3-5.4,5.5-5.4c1.8,0,3.1,0.5,4.2,1.5l-1.7,2c-0.7-0.6-1.5-1-2.5-1c-1.5,0-2.6,1.2-2.6,2.8v0
	c0,1.7,1.2,2.9,2.8,2.9c0.7,0,1.2-0.1,1.6-0.4v-1.2h-2V9.6h4.7v4.6c-1.1,0.9-2.6,1.6-4.5,1.6C6.6,15.8,4.3,13.6,4.3,10.5z"/>
</svg>
